<svg xmlns="http://www.w3.org/2000/svg" xml:space="preserve" style="enable-background:new 0 0 795.2 142.4" viewBox="0 0 795.2 142.4"><path fill="#fff" d="M143.7 23.8v-19c0-2.6-2.1-4.8-4.8-4.8H4.8C2.2 0 0 2.1 0 4.8v132.8c0 2.6 2.2 4.8 4.8 4.8h28.7c2.7 0 4.8-2.1 4.8-4.8V90.2c0-2.6 2.2-4.8 4.8-4.8h86.2c2.6 0 4.8-2.1 4.8-4.7v-19c0-2.6-2.2-4.7-4.8-4.7H43.1c-2.6 0-4.8-2.1-4.8-4.7v-19c0-2.6 2.2-4.7 4.8-4.7h95.8c2.7-.1 4.8-2.2 4.8-4.8m162.9 113.8v-19c0-2.6-2.2-4.7-4.8-4.7H196.4c-2.7 0-4.8-2.1-4.8-4.8v-19c0-2.6 2.1-4.8 4.8-4.8h95.8c2.6 0 4.8-2.1 4.8-4.7v-19c0-2.6-2.2-4.7-4.8-4.7h-95.8c-2.7 0-4.8-2.1-4.8-4.7v-19c0-2.6 2.1-4.7 4.8-4.7h105.4c2.6 0 4.8-2.1 4.8-4.7v-19c0-2.6-2.2-4.8-4.8-4.8H158.1c-2.7 0-4.8 2.1-4.8 4.8v132.8c0 2.6 2.1 4.8 4.8 4.8h143.7c2.7 0 4.8-2.2 4.8-4.8m162.9-23.7V85.4c0-15.7-12.9-28.4-28.7-28.4h-76.7c-5.3 0-9.6-4.2-9.6-9.5V38c0-5.3 4.3-9.5 9.6-9.5h62.3c2.7 0 4.8 2.1 4.8 4.7s2.1 4.7 4.8 4.7h28.8c2.6 0 4.8-2.1 4.8-4.7v-4.7c0-15.7-12.9-28.5-28.7-28.5h-95.8c-15.9 0-28.7 12.8-28.7 28.5V57c0 15.7 12.8 28.4 28.7 28.4h76.7c5.3 0 9.6 4.3 9.6 9.5v9.5c0 5.3-4.3 9.5-9.6 9.5h-62.3c-2.6 0-4.8-2.1-4.8-4.8 0-2.6-2.1-4.7-4.8-4.7H321c-2.6 0-4.8 2.1-4.8 4.7v4.8c0 15.7 12.8 28.5 28.7 28.5h95.8c15.9 0 28.8-12.8 28.8-28.5m162.9-90.1v-19c0-2.6-2.1-4.8-4.8-4.8H483.9c-2.7 0-4.8 2.1-4.8 4.8v19c0 2.6 2.1 4.7 4.8 4.7h47.9c2.6 0 4.8 2.1 4.8 4.7v104.4c0 2.6 2.1 4.8 4.8 4.8h28.7c2.7 0 4.8-2.1 4.8-4.8V33.2c0-2.6 2.1-4.7 4.8-4.7h47.9c2.6 0 4.8-2.1 4.8-4.7m124.5 80.6c0 5.3-4.3 9.5-9.6 9.5h-57.5c-5.3 0-9.6-4.2-9.6-9.5V38c0-5.3 4.3-9.5 9.6-9.5h57.5c5.3 0 9.6 4.2 9.6 9.5v66.4zm38.3 9.5V28.5c0-15.7-12.8-28.5-28.7-28.5h-95.8C654.9 0 642 12.8 642 28.5v85.4c0 15.7 12.9 28.5 28.7 28.5h95.8c15.9 0 28.7-12.8 28.7-28.5"/></svg>